<svg width="48" height="48" viewBox="0 0 48 48" fill="none" xmlns="http://www.w3.org/2000/svg">
<path fill-rule="evenodd" clip-rule="evenodd" d="M42.09 5.03072C42.6918 5.60002 42.7182 6.5494 42.1489 7.15123L9.21049 41.9718C8.64119 42.5736 7.69181 42.6 7.08999 42.0307C6.48816 41.4614 6.46179 40.512 7.03108 39.9102L39.9695 5.08963C40.5388 4.4878 41.4882 4.46143 42.09 5.03072Z" fill="black"/>
<path fill-rule="evenodd" clip-rule="evenodd" d="M13 21C16.866 21 20 17.866 20 14C20 10.134 16.866 7 13 7C9.13401 7 6 10.134 6 14C6 17.866 9.13401 21 13 21ZM13 24C18.5228 24 23 19.5228 23 14C23 8.47715 18.5228 4 13 4C7.47715 4 3 8.47715 3 14C3 19.5228 7.47715 24 13 24Z" fill="black"/>
<path fill-rule="evenodd" clip-rule="evenodd" d="M35 40C38.866 40 42 36.866 42 33C42 29.134 38.866 26 35 26C31.134 26 28 29.134 28 33C28 36.866 31.134 40 35 40ZM35 43C40.5228 43 45 38.5228 45 33C45 27.4772 40.5228 23 35 23C29.4772 23 25 27.4772 25 33C25 38.5228 29.4772 43 35 43Z" fill="black"/>
</svg>
