<svg width="52" height="36" viewBox="0 0 52 36" fill="none" xmlns="http://www.w3.org/2000/svg">
<path d="M38.1702 4.10352H13.8298C6.22341 4.10352 0 10.2851 0 17.8403C0 25.3955 6.22341 31.5771 13.8298 31.5771H38.1702C45.7766 31.5771 52 25.3955 52 17.8403C52 10.2851 45.7766 4.10352 38.1702 4.10352Z" fill="white"/>
<path d="M38.1702 5.2162C39.8782 5.2162 41.5378 5.55275 43.1005 6.21211C44.6149 6.85087 45.9702 7.76437 47.1457 8.92513C48.3144 10.0859 49.234 11.439 49.8771 12.9431C50.541 14.4954 50.8798 16.1438 50.8798 17.8403C50.8798 19.5368 50.541 21.1852 49.8771 22.7375C49.234 24.2416 48.3144 25.5879 47.1457 26.7555C45.9771 27.9162 44.6149 28.8297 43.1005 29.4685C41.5378 30.1279 39.8782 30.4644 38.1702 30.4644H13.8298C12.1218 30.4644 10.4622 30.1279 8.89947 29.4685C7.38511 28.8297 6.02979 27.9162 4.85426 26.7555C3.68564 25.5947 2.76596 24.2416 2.12287 22.7375C1.45904 21.1852 1.12021 19.5368 1.12021 17.8403C1.12021 16.1438 1.45904 14.4954 2.12287 12.9431C2.76596 11.439 3.68564 10.0928 4.85426 8.92513C6.02287 7.76437 7.38511 6.85087 8.89947 6.21211C10.4622 5.55275 12.1218 5.2162 13.8298 5.2162H38.1702ZM38.1702 4.10352H13.8298C6.22341 4.10352 0 10.2851 0 17.8403C0 25.3955 6.22341 31.5771 13.8298 31.5771H38.1702C45.7766 31.5771 52 25.3955 52 17.8403C52 10.2851 45.7766 4.10352 38.1702 4.10352Z" fill="#3C4043"/>
<path d="M24.8521 18.8169V22.9723H23.5244V12.7109H27.0441C27.9361 12.7109 28.6968 13.0063 29.3191 13.597C29.9553 14.1876 30.2733 14.9088 30.2733 15.7605C30.2733 16.6328 29.9553 17.354 29.3191 17.9378C28.7037 18.5216 27.943 18.8101 27.0441 18.8101H24.8521V18.8169ZM24.8521 13.9747V17.5532H27.0718C27.5973 17.5532 28.0398 17.3746 28.3856 17.0243C28.7382 16.674 28.918 16.2482 28.918 15.7674C28.918 15.2935 28.7382 14.8745 28.3856 14.5242C28.0398 14.1602 27.6042 13.9816 27.0718 13.9816H24.8521V13.9747Z" fill="#3C4043"/>
<path d="M33.7452 15.7188C34.7271 15.7188 35.5016 15.9797 36.0686 16.5017C36.6356 17.0237 36.9191 17.7381 36.9191 18.6447V22.9718H35.6537V21.9965H35.5984C35.0521 22.8001 34.3191 23.1984 33.4064 23.1984C32.625 23.1984 31.975 22.9718 31.4494 22.5116C30.9239 22.0514 30.6611 21.4813 30.6611 20.7945C30.6611 20.0664 30.9377 19.4895 31.4909 19.0637C32.0441 18.6309 32.784 18.418 33.7037 18.418C34.492 18.418 35.142 18.5623 35.6468 18.8507V18.5485C35.6468 18.0883 35.467 17.7037 35.1005 17.3809C34.734 17.0581 34.3053 16.9001 33.8143 16.9001C33.0744 16.9001 32.4867 17.2092 32.0579 17.8342L30.8893 17.1062C31.5324 16.1789 32.4867 15.7188 33.7452 15.7188ZM32.0303 20.8151C32.0303 21.1585 32.1755 21.447 32.4728 21.6736C32.7633 21.9003 33.109 22.0171 33.5032 22.0171C34.0633 22.0171 34.5611 21.811 34.9968 21.3989C35.4324 20.9868 35.6537 20.506 35.6537 19.9497C35.2388 19.6269 34.6649 19.462 33.925 19.462C33.3856 19.462 32.9361 19.5925 32.5766 19.8467C32.2101 20.1145 32.0303 20.4373 32.0303 20.8151Z" fill="#3C4043"/>
<path d="M44.1383 15.9453L39.7128 26.0556H38.3436L39.9894 22.5184L37.0713 15.9453H38.5165L40.6186 20.9867H40.6463L42.6931 15.9453H44.1383Z" fill="#3C4043"/>
<path d="M19.5713 17.9792C19.5713 17.5492 19.5325 17.1378 19.4606 16.7422H13.8955V19.0088L17.1006 19.0094C16.9706 19.7636 16.5522 20.4065 15.9112 20.8351V22.3056H17.819C18.933 21.2815 19.5713 19.7677 19.5713 17.9792Z" fill="#4285F4"/>
<path d="M15.9116 20.8335C15.3805 21.1893 14.6966 21.3974 13.8966 21.3974C12.3511 21.3974 11.04 20.363 10.5705 18.9688H8.60254V20.4853C9.57754 22.4071 11.5815 23.7258 13.8966 23.7258C15.4967 23.7258 16.8409 23.2031 17.8194 22.3034L15.9116 20.8335Z" fill="#34A853"/>
<path d="M10.3862 17.8454C10.3862 17.4539 10.4519 17.0755 10.5716 16.7197V15.2031H8.60358C8.20044 15.9978 7.97363 16.8948 7.97363 17.8454C7.97363 18.796 8.20113 19.693 8.60358 20.4877L10.5716 18.9711C10.4519 18.6153 10.3862 18.2369 10.3862 17.8454Z" fill="#FABB05"/>
<path d="M13.8966 14.2893C14.7699 14.2893 15.552 14.5881 16.1695 15.1719L17.8602 13.494C16.8333 12.5441 15.4946 11.9609 13.8966 11.9609C11.5822 11.9609 9.57754 13.2797 8.60254 15.2014L10.5705 16.718C11.04 15.3237 12.3511 14.2893 13.8966 14.2893Z" fill="#E94235"/>
</svg>
