<svg width="43" height="28" viewBox="0 0 43 28" fill="none" xmlns="http://www.w3.org/2000/svg">
<g clip-path="url(#clip0_2794_3666)">
<path d="M39.1492 0.21875H3.85085C3.70384 0.21875 3.55656 0.21875 3.40981 0.219607C3.28576 0.220491 3.162 0.221867 3.03824 0.225245C2.76832 0.232545 2.49609 0.248469 2.22955 0.296374C1.95875 0.34511 1.70676 0.424604 1.46092 0.549769C1.21925 0.672673 0.997986 0.833429 0.806241 1.02525C0.614413 1.21708 0.453657 1.43798 0.330779 1.67991C0.205588 1.92575 0.126042 2.17782 0.0776437 2.44883C0.029482 2.71545 0.0134507 2.98762 0.00617666 3.25726C0.00285141 3.38102 0.00142518 3.50478 0.000617251 3.62851C-0.000240042 3.77558 4.57223e-05 3.92254 4.57223e-05 4.06986V23.8961C4.57223e-05 24.0435 -0.000240042 24.1902 0.000617251 24.3375C0.00142518 24.4612 0.00285141 24.585 0.00617666 24.7088C0.0134507 24.9782 0.029482 25.2503 0.0776437 25.5169C0.126042 25.788 0.205588 26.04 0.330779 26.2858C0.453657 26.5278 0.614413 26.7489 0.806241 26.9405C0.997986 27.1326 1.21925 27.2934 1.46092 27.4159C1.70676 27.5414 1.95875 27.621 2.22955 27.6697C2.49609 27.7173 2.76832 27.7335 3.03824 27.7408C3.162 27.7436 3.28576 27.7452 3.40981 27.7458C3.55656 27.747 3.70384 27.747 3.85085 27.747H39.1492C39.296 27.747 39.4432 27.747 39.5899 27.7458C39.7137 27.7452 39.8375 27.7436 39.9618 27.7408C40.2312 27.7335 40.5033 27.7173 40.7705 27.6697C41.041 27.621 41.293 27.5414 41.5389 27.4159C41.7808 27.2934 42.0014 27.1326 42.1935 26.9405C42.3851 26.7489 42.5458 26.5278 42.669 26.2858C42.7945 26.04 42.874 25.788 42.9221 25.5169C42.9703 25.2503 42.9859 24.9782 42.9932 24.7088C42.9966 24.585 42.9983 24.4612 42.9989 24.3375C43 24.1902 43 24.0435 43 23.8961V4.06986C43 3.92254 43 3.77558 42.9989 3.62851C42.9983 3.50478 42.9966 3.38102 42.9932 3.25726C42.9859 2.98762 42.9703 2.71545 42.9221 2.44883C42.874 2.17782 42.7945 1.92575 42.669 1.67991C42.5458 1.43798 42.3851 1.21708 42.1935 1.02525C42.0014 0.833429 41.7808 0.672673 41.5389 0.549769C41.293 0.424604 41.041 0.34511 40.7705 0.296374C40.5033 0.248469 40.2312 0.232545 39.9618 0.225245C39.8375 0.221867 39.7137 0.220491 39.5899 0.219607C39.4432 0.21875 39.296 0.21875 39.1492 0.21875Z" fill="black"/>
<path d="M39.1496 1.13672L39.5838 1.13755C39.7014 1.13838 39.8191 1.13965 39.9374 1.14288C40.1431 1.14844 40.3838 1.15958 40.6082 1.19979C40.8032 1.23492 40.9667 1.28833 41.1237 1.36824C41.2787 1.44698 41.4206 1.55017 41.5446 1.67396C41.669 1.79857 41.7724 1.94078 41.8521 2.09746C41.9316 2.2532 41.9847 2.41598 42.0196 2.61243C42.0597 2.83434 42.0708 3.07568 42.0764 3.2827C42.0796 3.39956 42.0812 3.51641 42.0817 3.63604C42.0828 3.78071 42.0828 3.92531 42.0828 4.07027V23.8965C42.0828 24.0415 42.0828 24.1858 42.0817 24.3336C42.0812 24.4504 42.0796 24.5673 42.0764 24.6843C42.0708 24.8911 42.0597 25.1323 42.0191 25.3568C41.9847 25.5505 41.9316 25.7134 41.8517 25.8699C41.7722 26.0262 41.669 26.1682 41.5451 26.292C41.4204 26.4167 41.2789 26.5196 41.1221 26.5991C40.9663 26.6786 40.8031 26.732 40.61 26.7667C40.3811 26.8075 40.1303 26.8187 39.9414 26.8239C39.8226 26.8265 39.7044 26.8281 39.5832 26.8287C39.4389 26.8298 39.294 26.8298 39.1496 26.8298H3.85123C3.84931 26.8298 3.84744 26.8298 3.84549 26.8298C3.70277 26.8298 3.55976 26.8298 3.41443 26.8287C3.29594 26.8281 3.17771 26.8266 3.06341 26.824C2.87023 26.8187 2.61931 26.8075 2.39228 26.767C2.19752 26.732 2.03424 26.6786 1.8764 26.5981C1.72107 26.5193 1.57967 26.4165 1.45495 26.2916C1.33118 26.168 1.22833 26.0264 1.14881 25.8699C1.06922 25.7135 1.01596 25.5502 0.980943 25.3542C0.940466 25.1301 0.929347 24.8898 0.923791 24.6845C0.920619 24.567 0.919294 24.4494 0.91854 24.3326L0.917969 23.9876L0.917995 23.8965V4.07027L0.917969 3.97919L0.918514 3.63495C0.919294 3.51739 0.920619 3.39987 0.923791 3.28242C0.929347 3.0769 0.940466 2.83655 0.981279 2.61059C1.01599 2.41629 1.06922 2.25299 1.14923 2.09585C1.22813 1.94052 1.33116 1.79873 1.45557 1.67435C1.57949 1.55038 1.72136 1.44732 1.87767 1.36782C2.03383 1.2883 2.19741 1.23492 2.39217 1.19987C2.61658 1.15955 2.85742 1.14844 3.06369 1.14285C3.18127 1.13965 3.29885 1.13838 3.41555 1.13758L3.85123 1.13672H39.1496Z" fill="white"/>
<path d="M11.7393 9.47633C12.1075 9.01582 12.3573 8.39749 12.2914 7.76562C11.7525 7.79242 11.0948 8.1212 10.714 8.58207C10.3721 8.97674 10.0695 9.62096 10.1484 10.2263C10.7534 10.2788 11.3578 9.92392 11.7393 9.47633Z" fill="black"/>
<path d="M12.2847 10.3453C11.4061 10.293 10.659 10.844 10.2394 10.844C9.81961 10.844 9.17708 10.3717 8.48214 10.3844C7.57762 10.3977 6.73834 10.9091 6.27934 11.7225C5.33525 13.3497 6.03019 15.7634 6.94827 17.0887C7.39411 17.7443 7.93142 18.4662 8.63941 18.4403C9.30834 18.414 9.57054 18.0071 10.3837 18.0071C11.1962 18.0071 11.4324 18.4403 12.1405 18.4272C12.8748 18.414 13.3339 17.7712 13.7797 17.1149C14.2912 16.3675 14.5005 15.6458 14.5137 15.6062C14.5005 15.5931 13.0977 15.0549 13.0847 13.4413C13.0715 12.0901 14.1861 11.4474 14.2385 11.4076C13.6091 10.4766 12.6256 10.3717 12.2847 10.3453Z" fill="black"/>
<path d="M19.935 8.51563C21.8447 8.51563 23.1745 9.83198 23.1745 11.7485C23.1745 13.6719 21.8173 14.995 19.8871 14.995H17.7728V18.3575H16.2451V8.51562L19.935 8.51563ZM17.7728 13.7128H19.5256C20.8556 13.7128 21.6126 12.9967 21.6126 11.7553C21.6126 10.5141 20.8556 9.80475 19.5324 9.80475H17.7728V13.7128Z" fill="black"/>
<path d="M23.5732 16.3182C23.5732 15.0631 24.5349 14.2924 26.2402 14.1969L28.2043 14.081V13.5286C28.2043 12.7306 27.6654 12.2532 26.7653 12.2532C25.9126 12.2532 25.3806 12.6623 25.2511 13.3035H23.8598C23.9416 12.0076 25.0464 11.0527 26.8198 11.0527C28.559 11.0527 29.6706 11.9735 29.6706 13.4126V18.3574H28.2588V17.1775H28.2248C27.8088 17.9755 26.9016 18.4802 25.9605 18.4802C24.5554 18.4802 23.5732 17.6071 23.5732 16.3182ZM28.2043 15.6702V15.1042L26.4378 15.2132C25.5579 15.2746 25.0601 15.6634 25.0601 16.2772C25.0601 16.9046 25.5784 17.3139 26.3696 17.3139C27.3994 17.3139 28.2043 16.6046 28.2043 15.6702Z" fill="black"/>
<path d="M31.0033 20.9982V19.8046C31.1122 19.8319 31.3577 19.8319 31.4806 19.8319C32.1626 19.8319 32.5309 19.5455 32.7559 18.8089C32.7559 18.7952 32.8856 18.3724 32.8856 18.3655L30.2939 11.1836H31.8897L33.7042 17.0219H33.7313L35.5457 11.1836H37.1007L34.4132 18.7338C33.7997 20.4731 33.0903 21.0323 31.6035 21.0323C31.4806 21.0323 31.1122 21.0186 31.0033 20.9982Z" fill="black"/>
</g>
<defs>
<clipPath id="clip0_2794_3666">
<rect width="43" height="27.5282" fill="white" transform="translate(0 0.21875)"/>
</clipPath>
</defs>
</svg>
