<svg width="24" height="24" viewBox="0 0 24 24" fill="none" xmlns="http://www.w3.org/2000/svg">
<g clip-path="url(#clip0_672_1450)">
<path d="M12.0047 5.83789C8.60168 5.83789 5.84668 8.5959 5.84668 11.9959C5.84668 15.3989 8.60468 18.1539 12.0047 18.1539C15.4077 18.1539 18.1627 15.3959 18.1627 11.9959C18.1627 8.5929 15.4047 5.83789 12.0047 5.83789ZM12.0047 15.9929C9.79569 15.9929 8.00768 14.2039 8.00768 11.9959C8.00768 9.7879 9.79669 7.99889 12.0047 7.99889C14.2127 7.99889 16.0017 9.7879 16.0017 11.9959C16.0027 14.2039 14.2137 15.9929 12.0047 15.9929Z" fill="black"/>
<path d="M16.9483 0.0758751C14.7403 -0.0271251 9.27124 -0.0221251 7.06124 0.0758751C5.11924 0.166875 3.40623 0.635876 2.02523 2.01688C-0.282773 4.32488 0.0122273 7.43489 0.0122273 11.9959C0.0122273 16.6639 -0.247773 19.7019 2.02523 21.9749C4.34224 24.2909 7.49724 23.9879 12.0042 23.9879C16.6283 23.9879 18.2243 23.9909 19.8593 23.3579C22.0823 22.4949 23.7603 20.5079 23.9243 16.9389C24.0283 14.7299 24.0223 9.26189 23.9243 7.05189C23.7263 2.83888 21.4653 0.283875 16.9483 0.0758751ZM20.4433 20.4479C18.9303 21.9609 16.8313 21.8259 11.9752 21.8259C6.97524 21.8259 4.97024 21.8999 3.50723 20.4329C1.82223 18.7559 2.12723 16.0629 2.12723 11.9799C2.12723 6.45489 1.56023 2.47588 7.10524 2.19188C8.37924 2.14688 8.75424 2.13188 11.9612 2.13188L12.0062 2.16188C17.3353 2.16188 21.5163 1.60388 21.7673 7.14789C21.8243 8.41289 21.8373 8.79289 21.8373 11.9949C21.8363 16.9369 21.9303 18.9539 20.4433 20.4479Z" fill="black"/>
<path d="M18.4064 7.03426C19.2012 7.03426 19.8454 6.38999 19.8454 5.59525C19.8454 4.80051 19.2012 4.15625 18.4064 4.15625C17.6117 4.15625 16.9674 4.80051 16.9674 5.59525C16.9674 6.38999 17.6117 7.03426 18.4064 7.03426Z" fill="black"/>
</g>
<defs>
<clipPath id="clip0_672_1450">
<rect width="24" height="24" fill="white"/>
</clipPath>
</defs>
</svg>
