<svg width="24" height="24" viewBox="0 0 24 24" fill="none" xmlns="http://www.w3.org/2000/svg">
<g clip-path="url(#clip0_672_1465)">
<path d="M23.4696 5.92902L23.4996 6.12502C23.2096 5.09602 22.4266 4.30202 21.4316 4.01301L21.4106 4.00801C19.5396 3.50001 12.0106 3.50001 12.0106 3.50001C12.0106 3.50001 4.50055 3.49001 2.61054 4.00801C1.59654 4.30202 0.81254 5.09602 0.527539 6.10402L0.522539 6.12502C-0.176462 9.77603 -0.181462 14.163 0.553539 18.072L0.522539 17.874C0.81254 18.903 1.59554 19.697 2.59054 19.986L2.61154 19.991C4.48055 20.5 12.0116 20.5 12.0116 20.5C12.0116 20.5 19.5206 20.5 21.4116 19.991C22.4266 19.697 23.2106 18.903 23.4956 17.895L23.5006 17.874C23.8186 16.176 24.0006 14.222 24.0006 12.226C24.0006 12.153 24.0006 12.079 23.9996 12.005C24.0006 11.937 24.0006 11.856 24.0006 11.775C24.0006 9.77803 23.8186 7.82402 23.4696 5.92902ZM9.60856 15.651V8.35802L15.8746 12.01L9.60856 15.651Z" fill="black"/>
</g>
<defs>
<clipPath id="clip0_672_1465">
<rect width="24" height="24" fill="white" transform="translate(0.000244141)"/>
</clipPath>
</defs>
</svg>
