<svg width="48" height="48" viewBox="0 0 48 48" fill="none" xmlns="http://www.w3.org/2000/svg">
<g clip-path="url(#clip0_1864_18251)">
<path fill-rule="evenodd" clip-rule="evenodd" d="M46.052 1.93043C46.6427 2.51125 46.6507 3.46096 46.0699 4.05167L22.6083 27.9126L15.7782 20.9712L2.84532 47.1641C2.47855 47.9069 1.57906 48.2118 0.836242 47.845C0.093428 47.4782 -0.211418 46.5787 0.155351 45.8359L14.9566 15.8589L22.6075 23.6345L43.9308 1.94833C44.5116 1.35762 45.4613 1.34961 46.052 1.93043Z" fill="black"/>
<path fill-rule="evenodd" clip-rule="evenodd" d="M47.3494 0.424606L47.3494 11.016C47.3494 11.8444 46.6778 12.516 45.8494 12.516C45.021 12.516 44.3494 11.8444 44.3494 11.016V3.42461L36.0004 3.42461C35.172 3.42461 34.5004 2.75303 34.5004 1.92461C34.5004 1.09618 35.172 0.424607 36.0004 0.424607L47.3494 0.424606Z" fill="black"/>
</g>
<defs>
<clipPath id="clip0_1864_18251">
<rect width="48" height="48" fill="white"/>
</clipPath>
</defs>
</svg>
