<svg width="48" height="48" viewBox="0 0 48 48" fill="none" xmlns="http://www.w3.org/2000/svg">
<path d="M10.0319 18.8406L10.1241 18.852H10.2169H11.5997V32.93H8.54784C4.67092 32.93 1.5 29.7598 1.5 25.8908C1.5 22.91 3.40688 20.3235 6.0769 19.317C6.7603 19.0775 8.5347 18.6545 10.0319 18.8406ZM37.8327 18.852H37.9247L38.016 18.8408C38.4048 18.793 39.1157 18.7534 39.8791 18.8086C40.6676 18.8656 41.3559 19.0135 41.8014 19.242L41.8786 19.2816L41.9598 19.312C44.6437 20.3176 46.5406 22.8561 46.4993 25.8701L46.4992 25.8803V25.8906C46.4992 29.4214 43.8306 32.3843 40.4153 32.842L40.3568 32.8498L40.299 32.8623C39.7184 32.9872 38.3327 33.1563 37.3746 32.9604L37.2259 32.93H37.0742H36.4499V18.852H37.8327ZM26.402 40.2754C26.6868 40.2754 26.9291 40.4546 27.0263 40.6965V43.6383C26.9558 43.8984 26.7167 44.0963 26.402 44.0963H21.5972C21.2104 44.0963 20.9225 43.8066 20.9225 43.4238V40.9479C20.9225 40.5652 21.2104 40.2754 21.5972 40.2754H26.402Z" stroke="black" stroke-width="3"/>
<path fill-rule="evenodd" clip-rule="evenodd" d="M24.5 4.5C16.768 4.5 10.5 10.768 10.5 18.5H7.5C7.5 9.11116 15.1112 1.5 24.5 1.5C33.8888 1.5 41.5 9.11116 41.5 18.5H38.5C38.5 10.768 32.232 4.5 24.5 4.5Z" fill="black"/>
<path fill-rule="evenodd" clip-rule="evenodd" d="M35.3795 38.7533C36.9686 37.6495 38 35.8918 38 33L41 33C41 36.7356 39.5951 39.4779 37.091 41.2172C34.6823 42.8904 31.4489 43.5 28 43.5L28 40.5C31.1785 40.5 33.6951 39.9233 35.3795 38.7533Z" fill="black"/>
</svg>
