<svg width="115" height="21" viewBox="0 0 115 21" fill="none" xmlns="http://www.w3.org/2000/svg">
<path d="M49.5618 13.4391V9.26511C49.5618 7.69295 48.5601 6.63559 46.9462 6.62164C46.4864 6.5917 46.027 6.68564 45.6159 6.89365C45.2048 7.10165 44.857 7.41613 44.6088 7.80428C44.3826 7.42769 44.059 7.11908 43.6721 6.91095C43.2853 6.70282 42.8494 6.60287 42.4105 6.62164C42.0279 6.60242 41.647 6.68345 41.3054 6.85672C40.9637 7.02999 40.6733 7.28948 40.4628 7.6095V6.78861H39.0157V13.4391H40.4766V9.75203C40.4766 8.59728 41.1167 7.98522 42.1044 7.98522C43.0644 7.98522 43.5514 8.61122 43.5514 9.7382V13.4391H45.0123V9.75203C45.0123 8.59728 45.6801 7.98522 46.6401 7.98522C47.6279 7.98522 48.1009 8.61122 48.1009 9.7382V13.4391H49.5618ZM71.1826 6.78861H68.8174V4.77129H67.3565V6.78861H66.0069V8.11036H67.3565V11.1434C67.3565 12.6878 67.9548 13.6061 69.666 13.6061C70.3054 13.6079 70.9322 13.4295 71.4747 13.0913L71.0574 11.8529C70.6694 12.0844 70.2289 12.2137 69.7774 12.2286C69.0539 12.2286 68.8174 11.7833 68.8174 11.1156V8.11036H71.1826V6.78861ZM83.5234 6.62164C83.1706 6.61125 82.8216 6.69624 82.513 6.86765C82.2045 7.03905 81.948 7.29053 81.7704 7.59556V6.78861H80.3373V13.4391H81.7842V9.71031C81.7842 8.61122 82.2573 7.99903 83.2035 7.99903C83.513 7.99478 83.8203 8.05153 84.1078 8.16603L84.553 6.80256C84.2226 6.68425 83.8744 6.62307 83.5234 6.62164V6.62164ZM64.8661 7.31736C64.0471 6.83032 63.1054 6.58883 62.1531 6.62164C60.4695 6.62164 59.3844 7.42859 59.3844 8.75031C59.3844 9.83559 60.1913 10.5034 61.6799 10.7121L62.3617 10.8095C63.1547 10.9207 63.5304 11.1294 63.5304 11.5051C63.5304 12.0199 63.0017 12.3121 62.0139 12.3121C61.2193 12.3349 60.4402 12.0899 59.8017 11.6164L59.12 12.7433C59.9628 13.332 60.9724 13.6344 62 13.6061C63.9199 13.6061 65.033 12.7016 65.033 11.4355C65.033 10.2668 64.1565 9.65464 62.7095 9.44595L62.0279 9.34855C61.4018 9.26511 60.9009 9.13998 60.9009 8.69478C60.9009 8.20776 61.3738 7.91561 62.167 7.91561C62.8952 7.92656 63.6087 8.12289 64.24 8.48606L64.8661 7.31736ZM103.628 6.62164C103.275 6.61124 102.926 6.69622 102.617 6.86763C102.309 7.03904 102.052 7.29052 101.875 7.59556V6.78861H100.442V13.4391H101.889V9.71031C101.889 8.61122 102.362 7.99903 103.308 7.99903C103.617 7.99477 103.925 8.05151 104.212 8.16603L104.657 6.80256C104.327 6.68425 103.979 6.62307 103.628 6.62164V6.62164ZM84.9842 10.1138C84.9842 12.1313 86.3895 13.6061 88.5322 13.6061C89.4009 13.6497 90.2544 13.3667 90.9251 12.8129L90.2295 11.6442C89.7292 12.0256 89.1193 12.2353 88.4903 12.2424C87.3356 12.2286 86.4869 11.3938 86.4869 10.1138C86.4869 8.83387 87.3356 7.99903 88.4903 7.98522C89.1193 7.99232 89.7292 8.20211 90.2295 8.58345L90.9251 7.41475C90.2544 6.86093 89.4009 6.57802 88.5322 6.62164C86.3895 6.62164 84.9842 8.09642 84.9842 10.1138ZM98.5355 10.1138V6.78861H97.0887V7.59556C96.8417 7.27728 96.522 7.02278 96.1565 6.85335C95.791 6.68391 95.3902 6.60446 94.9877 6.62164C93.1234 6.62164 91.6626 8.08262 91.6626 10.1138C91.6626 12.1451 93.1234 13.6061 94.9877 13.6061C95.3902 13.6232 95.791 13.5438 96.1565 13.3743C96.522 13.2049 96.8417 12.9504 97.0887 12.6321V13.4391H98.5355V10.1138ZM93.1512 10.1138C93.1512 8.94509 93.9164 7.98522 95.1687 7.98522C96.3651 7.98522 97.1721 8.90337 97.1721 10.1138C97.1721 11.3242 96.3651 12.2424 95.1687 12.2424C93.9164 12.2424 93.1512 11.2825 93.1512 10.1138ZM75.6905 6.62164C73.7426 6.62164 72.3792 8.04076 72.3792 10.1138C72.3792 12.2286 73.7982 13.6061 75.7879 13.6061C76.7805 13.6409 77.7512 13.309 78.5148 12.6738L77.8052 11.6025C77.2557 12.0428 76.5753 12.2876 75.8713 12.2981C74.939 12.2981 74.0904 11.8669 73.8817 10.6703H78.8208C78.8348 10.4895 78.8486 10.3087 78.8486 10.1138C78.8348 8.04076 77.5548 6.62164 75.6905 6.62164ZM75.6626 7.91561C76.5948 7.91561 77.193 8.49989 77.3461 9.5295H73.8956C74.0487 8.5695 74.633 7.91561 75.6626 7.91561ZM111.962 10.1138V4.11737H110.515V7.59556C110.268 7.2773 109.948 7.0228 109.583 6.85336C109.217 6.68392 108.816 6.60447 108.414 6.62164C106.549 6.62164 105.089 8.08262 105.089 10.1138C105.089 12.1451 106.549 13.6061 108.414 13.6061C108.816 13.6232 109.217 13.5438 109.583 13.3743C109.948 13.2049 110.268 12.9504 110.515 12.6321V13.4391H111.962V10.1138ZM113.653 12.8254C113.71 12.825 113.767 12.8362 113.82 12.8584C113.871 12.8797 113.917 12.9104 113.956 12.9489C113.995 12.9874 114.027 13.0331 114.048 13.0835C114.071 13.1352 114.082 13.1909 114.082 13.2472C114.082 13.3034 114.071 13.3591 114.048 13.4109C114.026 13.461 113.995 13.5064 113.956 13.5448C113.917 13.5834 113.871 13.6142 113.82 13.6358C113.767 13.6584 113.71 13.6699 113.653 13.6695C113.568 13.6703 113.485 13.6463 113.414 13.6003C113.343 13.5543 113.288 13.4884 113.254 13.4109C113.232 13.3591 113.22 13.3034 113.22 13.2472C113.22 13.1909 113.232 13.1352 113.254 13.0835C113.298 12.9813 113.38 12.9005 113.483 12.8584C113.536 12.8362 113.594 12.8249 113.653 12.8254V12.8254ZM113.653 13.5764C113.696 13.5767 113.74 13.5679 113.78 13.5505C113.819 13.5337 113.854 13.5099 113.883 13.4801C113.945 13.4182 113.979 13.3345 113.979 13.2474C113.979 13.1602 113.945 13.0765 113.883 13.0146C113.854 12.9849 113.819 12.9613 113.78 12.9448C113.74 12.9277 113.696 12.9191 113.653 12.9195C113.608 12.9191 113.564 12.9278 113.523 12.9448C113.473 12.9659 113.43 12.9988 113.396 13.0406C113.362 13.0824 113.339 13.1319 113.328 13.1847C113.318 13.2375 113.321 13.292 113.336 13.3435C113.352 13.395 113.38 13.4419 113.418 13.4801C113.448 13.5101 113.484 13.534 113.523 13.5505C113.564 13.5679 113.608 13.5767 113.653 13.5764V13.5764ZM113.677 13.0498C113.719 13.0471 113.76 13.059 113.794 13.0835C113.807 13.0945 113.818 13.1085 113.825 13.1244C113.832 13.1403 113.836 13.1576 113.835 13.175C113.835 13.1899 113.833 13.2047 113.827 13.2185C113.821 13.2323 113.813 13.2448 113.802 13.2551C113.776 13.2779 113.744 13.2916 113.71 13.2939L113.838 13.4418H113.738L113.619 13.2949H113.58V13.4418H113.496V13.0498H113.677ZM113.58 13.1233V13.2278H113.676C113.695 13.2287 113.713 13.2242 113.729 13.2148C113.736 13.2105 113.741 13.2045 113.744 13.1975C113.748 13.1905 113.749 13.1827 113.749 13.175C113.749 13.1674 113.748 13.1598 113.744 13.1529C113.741 13.1461 113.736 13.1403 113.729 13.1362C113.713 13.1268 113.695 13.1224 113.676 13.1233H113.58ZM106.577 10.1138C106.577 8.94509 107.343 7.98522 108.595 7.98522C109.791 7.98522 110.598 8.90337 110.598 10.1138C110.598 11.3242 109.791 12.2424 108.595 12.2424C107.343 12.2424 106.577 11.2825 106.577 10.1138ZM57.7148 10.1138V6.78861H56.2678V7.59556C56.0208 7.27728 55.7012 7.02278 55.3357 6.85334C54.9702 6.6839 54.5695 6.60445 54.1669 6.62164C52.3026 6.62164 50.8418 8.08262 50.8418 10.1138C50.8418 12.1451 52.3026 13.6061 54.1669 13.6061C54.5695 13.6232 54.9702 13.5438 55.3357 13.3743C55.7012 13.2049 56.0208 12.9504 56.2678 12.6321V13.4391H57.7148V10.1138ZM52.3305 10.1138C52.3305 8.94509 53.0958 7.98522 54.3479 7.98522C55.5444 7.98522 56.3513 8.90337 56.3513 10.1138C56.3513 11.3242 55.5444 12.2424 54.3479 12.2424C53.0958 12.2424 52.3305 11.2825 52.3305 10.1138V10.1138Z" fill="#231F20"/>
<path d="M20.5547 2.20821H11.8047V17.9322H20.5547V2.20821Z" fill="#FF5F00"/>
<path d="M12.3603 10.0708C12.3589 8.55648 12.7021 7.06168 13.3638 5.69957C14.0255 4.33746 14.9885 3.14376 16.1797 2.20882C14.7045 1.04927 12.9328 0.328171 11.0672 0.127929C9.20151 -0.0723136 7.31716 0.256378 5.62948 1.07645C3.94181 1.89652 2.5189 3.17488 1.52341 4.7654C0.527918 6.35592 0 8.19444 0 10.0708C0 11.9472 0.527918 13.7857 1.52341 15.3762C2.5189 16.9667 3.94181 18.2451 5.62948 19.0652C7.31716 19.8852 9.20151 20.2139 11.0672 20.0137C12.9328 19.8134 14.7045 19.0923 16.1797 17.9328C14.9885 16.9979 14.0255 15.8041 13.3638 14.442C12.7021 13.0799 12.3589 11.5851 12.3603 10.0708V10.0708Z" fill="#EB001B"/>
<path d="M32.359 10.0708C32.3591 11.9472 31.8312 13.7857 30.8358 15.3762C29.8404 16.9667 28.4175 18.2451 26.7299 19.0652C25.0422 19.8852 23.1579 20.2139 21.2923 20.0137C19.4266 19.8135 17.655 19.0924 16.1798 17.9328C17.37 16.9969 18.3322 15.803 18.9938 14.4411C19.6554 13.0792 19.9992 11.5849 19.9992 10.0708C19.9992 8.55672 19.6554 7.06239 18.9938 5.7005C18.3322 4.33861 17.37 3.14471 16.1798 2.20883C17.655 1.04928 19.4266 0.328167 21.2923 0.127926C23.1579 -0.0723139 25.0422 0.256392 26.7299 1.07647C28.4175 1.89655 29.8404 3.17492 30.8358 4.76544C31.8312 6.35597 32.3591 8.19447 32.359 10.0708V10.0708Z" fill="#F79E1B"/>
<path d="M31.4049 16.2671V15.9451H31.5347V15.8796H31.2041V15.9451H31.334V16.2671H31.4049ZM32.0467 16.2671V15.8789H31.9453L31.8288 16.1459L31.7122 15.8789H31.6108V16.2671H31.6824V15.9743L31.7917 16.2267H31.8659L31.9752 15.9736V16.2671H32.0467Z" fill="#F79E1B"/>
</svg>
