<svg width="62" height="21" viewBox="0 0 62 21" fill="none" xmlns="http://www.w3.org/2000/svg">
<path d="M26.9429 19.7823H21.9369L25.068 0.421783H30.0738L26.9429 19.7823Z" fill="#00579F"/>
<path d="M45.0902 0.89507C44.1028 0.503338 42.5367 0.070816 40.6002 0.070816C35.6566 0.070816 32.1753 2.70701 32.154 6.47596C32.1129 9.25669 34.6464 10.8012 36.5413 11.7284C38.4781 12.6758 39.1365 13.2942 39.1365 14.1387C39.1168 15.4357 37.5714 16.0336 36.1302 16.0336C34.1315 16.0336 33.0606 15.7253 31.4332 15.0037L30.774 14.6944L30.0735 19.0404C31.2476 19.5753 33.4107 20.05 35.6566 20.0708C40.9093 20.0708 44.3289 17.4754 44.3694 13.459C44.3894 11.255 43.0516 9.5663 40.1674 8.18634C38.4165 7.30049 37.3442 6.70317 37.3442 5.79679C37.3648 4.97281 38.2512 4.12885 40.2276 4.12885C41.855 4.08751 43.0508 4.4787 43.9566 4.87016L44.4094 5.07574L45.0902 0.89507V0.89507Z" fill="#00579F"/>
<path d="M51.7435 12.9236C52.1558 11.8113 53.7422 7.50664 53.7422 7.50664C53.7214 7.54798 54.1536 6.37388 54.4008 5.6531L54.7506 7.32132C54.7506 7.32132 55.6986 11.9556 55.9045 12.9236C55.1221 12.9236 52.7323 12.9236 51.7435 12.9236ZM57.9228 0.421783H54.0507C52.8566 0.421783 51.9494 0.771633 51.4342 2.02813L43.9984 19.782H49.2511C49.2511 19.782 50.1158 17.3925 50.3017 16.8778C50.8779 16.8778 55.9877 16.8778 56.729 16.8778C56.8727 17.5576 57.3263 19.782 57.3263 19.782H61.9614L57.9228 0.421783V0.421783Z" fill="#00579F"/>
<path d="M17.7557 0.421783L12.8531 13.6238L12.3174 10.9463C11.411 7.85677 8.56843 4.50008 5.39624 2.83104L9.8868 19.7618H15.1805L23.0491 0.421783H17.7557V0.421783Z" fill="#00579F"/>
<path d="M8.30066 0.421783H0.24646L0.164062 0.812968C6.44684 2.41959 10.6078 6.2923 12.3174 10.9471L10.5665 2.04921C10.2782 0.812695 9.39237 0.462572 8.30066 0.421783Z" fill="#FAA61A"/>
</svg>
