<svg width="24" height="24" viewBox="0 0 24 24" fill="none" xmlns="http://www.w3.org/2000/svg">
<g clip-path="url(#clip0_2866_19952)">
<path d="M23.9943 23.9998V23.9988H24.0003V15.1967C24.0003 10.8907 23.0733 7.57373 18.0393 7.57373C15.6193 7.57373 13.9953 8.90173 13.3323 10.1607H13.2623V7.97573H8.48926V23.9988H13.4593V16.0647C13.4593 13.9757 13.8553 11.9557 16.4423 11.9557C18.9913 11.9557 19.0293 14.3397 19.0293 16.1987V23.9998H23.9943Z" fill="black"/>
<path d="M0.396484 7.97705H5.37249V24.0001H0.396484V7.97705Z" fill="black"/>
<path d="M2.88201 0C1.291 0 0 1.291 0 2.88201C0 4.47301 1.291 5.79101 2.88201 5.79101C4.47301 5.79101 5.76401 4.47301 5.76401 2.88201C5.76301 1.291 4.47201 0 2.88201 0V0Z" fill="black"/>
</g>
<defs>
<clipPath id="clip0_2866_19952">
<rect width="24" height="24" fill="white"/>
</clipPath>
</defs>
</svg>
