<svg width="48" height="48" viewBox="0 0 48 48" fill="none" xmlns="http://www.w3.org/2000/svg">
<g clip-path="url(#clip0_1730_18271)">
<path fill-rule="evenodd" clip-rule="evenodd" d="M35.0454 3.3825C35.3865 1.76114 36.9775 0.723325 38.5988 1.06446L44.9469 2.40013C46.5683 2.74126 47.6061 4.33218 47.2649 5.95353L40.2814 39.1447C40.1591 39.7262 39.8668 40.2582 39.4417 40.6734L35.27 44.7471C34.5538 45.4465 33.5359 45.7426 32.5563 45.5365C31.5767 45.3304 30.7645 44.6492 30.3908 43.7205L28.2144 38.3111C27.9926 37.7598 27.9395 37.1551 28.0619 36.5736L35.0454 3.3825ZM30.9976 37.1913L37.9811 4.00019L44.3292 5.33585L37.3457 38.527L33.174 42.6007L30.9976 37.1913Z" fill="black"/>
<path fill-rule="evenodd" clip-rule="evenodd" d="M31 46.5C31 47.3284 30.3284 48 29.5 48L1.5 48C0.671574 48 0 47.3284 0 46.5C0 45.6716 0.671574 45 1.5 45H29.5C30.3284 45 31 45.6716 31 46.5Z" fill="black"/>
</g>
<defs>
<clipPath id="clip0_1730_18271">
<rect width="48" height="48" fill="white"/>
</clipPath>
</defs>
</svg>
