<svg width="48" height="48" viewBox="0 0 48 48" fill="none" xmlns="http://www.w3.org/2000/svg">
<path fill-rule="evenodd" clip-rule="evenodd" d="M23.9287 5.14307C24.7571 5.14307 25.4287 5.81464 25.4287 6.64307L25.4287 24.0002C25.4287 24.8286 24.7571 25.5002 23.9287 25.5002C23.1003 25.5002 22.4287 24.8286 22.4287 24.0002L22.4287 6.64307C22.4287 5.81464 23.1003 5.14307 23.9287 5.14307Z" fill="black"/>
<path fill-rule="evenodd" clip-rule="evenodd" d="M24.0356 0.878906L31.5248 8.36814C32.1106 8.95392 32.1106 9.90367 31.5248 10.4895C30.939 11.0752 29.9893 11.0752 29.4035 10.4895L24.0356 5.12155L18.1319 11.0252C17.5462 11.611 16.5964 11.611 16.0106 11.0252C15.4248 10.4394 15.4248 9.48964 16.0106 8.90385L24.0356 0.878906Z" fill="black"/>
<path fill-rule="evenodd" clip-rule="evenodd" d="M7.54688 32.5C7.54688 31.6716 8.21845 31 9.04688 31H30.0469C30.8753 31 31.5469 31.6716 31.5469 32.5C31.5469 33.3284 30.8753 34 30.0469 34H9.04688C8.21845 34 7.54688 33.3284 7.54688 32.5Z" fill="black"/>
<path fill-rule="evenodd" clip-rule="evenodd" d="M7.54688 38C7.54688 37.4477 7.99459 37 8.54688 37H9.54688C10.0992 37 10.5469 37.4477 10.5469 38C10.5469 38.5523 10.0992 39 9.54688 39H8.54688C7.99459 39 7.54688 38.5523 7.54688 38Z" fill="black"/>
<path fill-rule="evenodd" clip-rule="evenodd" d="M11.5469 38C11.5469 37.4477 11.9946 37 12.5469 37H17.5469C18.0992 37 18.5469 37.4477 18.5469 38C18.5469 38.5523 18.0992 39 17.5469 39H12.5469C11.9946 39 11.5469 38.5523 11.5469 38Z" fill="black"/>
<path fill-rule="evenodd" clip-rule="evenodd" d="M19.5469 38C19.5469 37.4477 19.9946 37 20.5469 37H27.5469C28.0992 37 28.5469 37.4477 28.5469 38C28.5469 38.5523 28.0992 39 27.5469 39H20.5469C19.9946 39 19.5469 38.5523 19.5469 38Z" fill="black"/>
<path fill-rule="evenodd" clip-rule="evenodd" d="M29.5469 38C29.5469 37.4477 29.9946 37 30.5469 37H34.5469C35.0992 37 35.5469 37.4477 35.5469 38C35.5469 38.5523 35.0992 39 34.5469 39H30.5469C29.9946 39 29.5469 38.5523 29.5469 38Z" fill="black"/>
<path fill-rule="evenodd" clip-rule="evenodd" d="M19.158 18H4C2.34315 18 1 19.3431 1 21V45C1 46.6569 2.34315 48 4 48H44C45.6569 48 47 46.6569 47 45V21C47 19.3431 45.6569 18 44 18H30.0528V21H44V45H4L4 21H19.158V18Z" fill="black"/>
</svg>
